<svg width="10" height="10" viewBox="0 0 10 10" fill="none" xmlns="http://www.w3.org/2000/svg">
<path d="M5.00011 3.82166L8.53595 0.285822C8.86133 -0.039566 9.38889 -0.0395657 9.71428 0.285822C10.0397 0.61121 10.0397 1.13877 9.71428 1.46416L6.17844 4.99999L9.71428 8.53582C10.0397 8.86121 10.0397 9.38877 9.71428 9.71416C9.38889 10.0395 8.86133 10.0395 8.53595 9.71416L5.00011 6.17832L1.46428 9.71416C1.13889 10.0395 0.611332 10.0395 0.285944 9.71416C-0.0394437 9.38877 -0.0394437 8.86121 0.285944 8.53582L3.82178 4.99999L0.285944 1.46416C-0.0394436 1.13877 -0.0394438 0.61121 0.285944 0.285822C0.611332 -0.0395659 1.13889 -0.0395657 1.46428 0.285822L5.00011 3.82166Z" fill="#ffffff"/>
</svg>
