<svg width="20" height="25" viewBox="0 0 20 25" fill="none" xmlns="http://www.w3.org/2000/svg">
<path d="M11.0101 0L1.76202 9.24807C-0.587339 11.5974 -0.587339 15.4081 1.76202 17.7574L1.92752 17.9229C3.06587 19.0613 4.91064 19.0613 6.04899 17.9229L10.0897 13.8822L9.92422 13.7167C8.78587 12.5783 6.9411 12.5783 5.80275 13.7167L11.0101 8.50936C13.3594 6.16 13.3594 2.34936 11.0101 0Z" fill="#1D4ED8"/>
<path d="M18.2116 7.17332L18.0461 7.00781C16.9078 5.86947 15.063 5.86947 13.9246 7.00781L9.77492 11.1575L9.94043 11.323C11.0788 12.4614 12.9235 12.4614 14.0619 11.323L8.96758 16.4174C6.61823 18.7667 6.61823 22.5774 8.96758 24.9267L18.2157 15.6786C20.561 13.3333 20.561 9.52268 18.2116 7.17332Z" fill="#1D4ED8"/>
</svg>
