<svg width="88" height="26" viewBox="0 0 88 26" fill="none" xmlns="http://www.w3.org/2000/svg">
<g clip-path="url(#clip0_1067_8493)">
<path d="M11.0101 0L1.76202 9.24807C-0.587339 11.5974 -0.587339 15.4081 1.76202 17.7574L1.92752 17.9229C3.06587 19.0613 4.91064 19.0613 6.04899 17.9229L10.0897 13.8822L9.92422 13.7167C8.78587 12.5783 6.9411 12.5783 5.80275 13.7167L11.0101 8.50936C13.3594 6.16 13.3594 2.34936 11.0101 0Z" fill="#1D4ED8"/>
<path d="M18.2116 7.17332L18.0461 7.00781C16.9078 5.86947 15.063 5.86947 13.9246 7.00781L9.77492 11.1575L9.94043 11.323C11.0788 12.4614 12.9235 12.4614 14.0619 11.323L8.96758 16.4174C6.61823 18.7667 6.61823 22.5774 8.96758 24.9267L18.2157 15.6786C20.561 13.3333 20.561 9.52268 18.2116 7.17332Z" fill="#1D4ED8"/>
<path d="M29.4177 9.04619C30.1161 9.36105 30.653 9.81316 31.0324 10.3944C31.4119 10.9757 31.5975 11.666 31.5975 12.4612C31.5975 13.2484 31.4078 13.9346 31.0324 14.5199C30.653 15.1053 30.1161 15.5574 29.4177 15.8682C28.7194 16.179 27.8959 16.3365 26.9473 16.3365H24.7877V19.2913H22.3091V8.57793H26.9473C27.8959 8.56986 28.7194 8.72729 29.4177 9.04619ZM28.5095 13.8296C28.897 13.5067 29.0908 13.0506 29.0908 12.4612C29.0908 11.8598 28.897 11.3955 28.5095 11.0766C28.122 10.7537 27.5568 10.5963 26.81 10.5963H24.7877V14.3141H26.81C27.5528 14.31 28.122 14.1485 28.5095 13.8296Z" fill="#1D4ED8"/>
<path d="M39.3761 11.8395C40.0583 12.445 40.4013 13.3614 40.4013 14.5885V19.2872H38.165V18.2619C37.717 19.0289 36.8814 19.4083 35.6542 19.4083C35.0205 19.4083 34.4715 19.2994 34.0072 19.0854C33.543 18.8715 33.1878 18.5768 32.9416 18.1973C32.6953 17.8179 32.5742 17.39 32.5742 16.9096C32.5742 16.1427 32.8608 15.5412 33.4381 15.1052C34.0153 14.6652 34.9034 14.4472 36.1104 14.4472H38.0076C38.0076 13.9265 37.8502 13.5269 37.5313 13.2443C37.2164 12.9617 36.7401 12.8245 36.1063 12.8245C35.6663 12.8245 35.2344 12.8931 34.8146 13.0304C34.3907 13.1676 34.0315 13.3533 33.7368 13.5874L32.881 11.9203C33.3291 11.6054 33.87 11.3592 34.4957 11.1856C35.1214 11.012 35.7672 10.9272 36.4333 10.9272C37.7129 10.9272 38.6898 11.23 39.3761 11.8395ZM37.3416 17.5192C37.6564 17.3294 37.8825 17.0509 38.0157 16.6836V15.8399H36.3768C35.3959 15.8399 34.9074 16.1628 34.9074 16.8047C34.9074 17.1115 35.0285 17.3537 35.2667 17.5313C35.5049 17.7089 35.8359 17.7977 36.2557 17.7977C36.6594 17.8017 37.0227 17.7049 37.3416 17.5192Z" fill="#1D4ED8"/>
<path d="M45.9959 11.234C46.4803 11.0282 47.0374 10.9272 47.6711 10.9272V13.1313C47.4047 13.1111 47.2271 13.099 47.1343 13.099C46.4521 13.099 45.9152 13.2887 45.5277 13.6722C45.1401 14.0557 44.9464 14.6289 44.9464 15.3959V19.2832H42.5566V11.0483H44.8374V12.1342C45.124 11.7386 45.5115 11.4399 45.9959 11.234Z" fill="#1D4ED8"/>
<path d="M52.6323 16.054L51.4859 17.1883V19.2833H49.0962V7.92407H51.4859V14.3545L54.9777 11.0485H57.8235L54.3964 14.5402L58.1303 19.2833H55.236L52.6323 16.054Z" fill="#1D4ED8"/>
<path d="M66.4787 9.04619C67.1771 9.36105 67.718 9.81316 68.0934 10.3944C68.4688 10.9757 68.6586 11.666 68.6586 12.4612C68.6586 13.2484 68.4688 13.9346 68.0934 14.5199C67.714 15.1053 67.1771 15.5574 66.4787 15.8682C65.7804 16.179 64.9569 16.3365 64.0083 16.3365H61.8486V19.2913H59.3701V8.57793H64.0083C64.9529 8.56986 65.7764 8.72729 66.4787 9.04619ZM65.5665 13.8296C65.954 13.5067 66.1477 13.0506 66.1477 12.4612C66.1477 11.8598 65.954 11.3955 65.5665 11.0766C65.1789 10.7537 64.6138 10.5963 63.867 10.5963H61.8446V14.3141H63.867C64.6098 14.31 65.1789 14.1485 65.5665 13.8296Z" fill="#1D4ED8"/>
<path d="M76.4326 11.8395C77.1148 12.445 77.4579 13.3614 77.4579 14.5885V19.2872H75.2216V18.2619C74.7735 19.0289 73.9379 19.4083 72.7107 19.4083C72.077 19.4083 71.528 19.2994 71.0638 19.0854C70.5995 18.8715 70.2443 18.5768 70.0021 18.1973C69.7559 17.8179 69.6348 17.39 69.6348 16.9096C69.6348 16.1427 69.9214 15.5412 70.4986 15.1052C71.0759 14.6652 71.9639 14.4472 73.1709 14.4472H75.0682C75.0682 13.9265 74.9107 13.5269 74.5918 13.2443C74.277 12.9617 73.8006 12.8245 73.1669 12.8245C72.7269 12.8245 72.2949 12.8931 71.8751 13.0304C71.4553 13.1676 71.092 13.3533 70.7973 13.5874L69.9416 11.9203C70.3896 11.6054 70.9305 11.3592 71.5562 11.1856C72.1819 11.012 72.8278 10.9272 73.4938 10.9272C74.7694 10.9272 75.7504 11.23 76.4326 11.8395ZM74.3981 17.5192C74.7129 17.3294 74.939 17.0509 75.0722 16.6836V15.8399H73.4333C72.4524 15.8399 71.9639 16.1628 71.9639 16.8047C71.9639 17.1115 72.085 17.3537 72.3232 17.5313C72.5614 17.7089 72.8924 17.7977 73.3122 17.7977C73.7199 17.8017 74.0792 17.7049 74.3981 17.5192Z" fill="#1D4ED8"/>
<path d="M87.6387 11.0525L83.9209 19.7919C83.5415 20.7406 83.0772 21.4107 82.5202 21.7982C81.9631 22.1857 81.293 22.3795 80.5059 22.3795C80.078 22.3795 79.6541 22.3149 79.2343 22.1817C78.8145 22.0485 78.4754 21.8668 78.209 21.6286L79.0809 19.9292C79.2666 20.0907 79.4765 20.2198 79.7147 20.3127C79.9528 20.4055 80.191 20.4499 80.4251 20.4499C80.7521 20.4499 81.0185 20.3692 81.2204 20.2118C81.4262 20.0543 81.6079 19.7919 81.7734 19.4246L81.8057 19.3479L78.2372 11.0525H80.7037L83.0167 16.6393L85.3418 11.0525H87.6387Z" fill="#1D4ED8"/>
</g>
<defs>
<clipPath id="clip0_1067_8493">
<rect width="88" height="25.0275" fill="white"/>
</clipPath>
</defs>
</svg>
